<?xml version="1.0" encoding="utf-8"?>
<!-- Generator: Adobe Illustrator 27.2.0, SVG Export Plug-In . SVG Version: 6.00 Build 0)  -->
<svg version="1.1" id="Capa_1" xmlns="http://www.w3.org/2000/svg" xmlns:xlink="http://www.w3.org/1999/xlink" x="0px" y="0px"
	 viewBox="0 0 400 236.5" style="enable-background:new 0 0 400 236.5;" xml:space="preserve">
<style type="text/css">
	.st0{fill:url(#XMLID_00000078017934669065808700000016203037924239388306_);}
	.st1{clip-path:url(#SVGID_00000173148394056047642770000016130194551323476121_);}
	.st2{fill:url(#XMLID_00000029013393252905001450000015063594328242168219_);}
	.st3{clip-path:url(#SVGID_00000117668629674098592210000012885131219054578567_);}
	.st4{fill:url(#XMLID_00000027593489988106943160000004431046559322424213_);}
	.st5{fill:#FABC00;}
	.st6{clip-path:url(#SVGID_00000179642584336881143240000012022671691833998783_);}
	.st7{clip-path:url(#SVGID_00000089562615136127932410000001163642800046327450_);}
	.st8{fill:#FFDE00;}
	.st9{clip-path:url(#SVGID_00000135648783666513156130000016896631451272619662_);}
	.st10{clip-path:url(#SVGID_00000153686183886047387750000013044237489121767606_);}
	.st11{clip-path:url(#SVGID_00000138549102085452314350000018053245662543428791_);}
</style>
<g>
	<g id="XMLID_00000057127610051222026530000001496112300546106796_">
		<g>
			
				<linearGradient id="XMLID_00000049901172547868174170000006324556360124910213_" gradientUnits="userSpaceOnUse" x1="268.9824" y1="250.0395" x2="419.8753" y2="99.1465" gradientTransform="matrix(1 0 0 -1 0 294.2293)">
				<stop  offset="0.1129" style="stop-color:#F39200"/>
				<stop  offset="0.6237" style="stop-color:#FFDE00"/>
			</linearGradient>
			
				<path id="XMLID_00000047017637072940264000000015744005126259381673_" style="fill:url(#XMLID_00000049901172547868174170000006324556360124910213_);" d="
				M373.1,233.8l-10.8,2.1c-17.9,3.4-35.3-8.4-38.7-26.2L291.4,42.3c-3.4-17.9,8.4-35.3,26.2-38.7l-6.5,0.3c17.9-3.4,52.6,6,56,23.8
				l32.2,167.4C402.8,213,391,230.4,373.1,233.8z"/>
		</g>
		<g>
			<defs>
				<path id="SVGID_1_" d="M373.1,233.8l-10.8,2.1c-17.9,3.4-35.3-8.4-38.7-26.2L291.4,42.3c-3.4-17.9,8.4-35.3,26.2-38.7l-6.5,0.3
					c17.9-3.4,52.6,6,56,23.8l32.2,167.4C402.8,213,391,230.4,373.1,233.8z"/>
			</defs>
			<clipPath id="SVGID_00000143604228269618771270000016384279489154283656_">
				<use xlink:href="#SVGID_1_"  style="overflow:visible;"/>
			</clipPath>
			
				<g id="XMLID_00000070838495854434410160000010162258218797384325_" style="clip-path:url(#SVGID_00000143604228269618771270000016384279489154283656_);">
				<g>
					
						<linearGradient id="XMLID_00000025428258802943593580000007408292160818856338_" gradientUnits="userSpaceOnUse" x1="268.7639" y1="232.5285" x2="453.2725" y2="48.0198" gradientTransform="matrix(1 0 0 -1 0 294.2293)">
						<stop  offset="0.1129" style="stop-color:#F39200"/>
						<stop  offset="0.6237" style="stop-color:#FFDE00"/>
					</linearGradient>
					
						<path id="XMLID_00000087380787727647684040000013532434152531554205_" style="fill:url(#XMLID_00000025428258802943593580000007408292160818856338_);" d="
						M409.1,230.7c-0.9-4.5-3.2-16.2-4.4-22L367.4,23.3l-8-7l-22.9,0.6l-61.1,38.3c-2.9,4.2-5.3,8.9-7,14.5c0,0,23.7-11.5,30.2,20.9
						c0.9,4.5,3.2,16.2,4.4,22l2.5,12.2h0l6.7,33.7l12.5,61.3c6.8,34.1,16.4,76.1,64.4,69.4c21-3,43-12.6,50.4-37.8
						C439.3,251.5,415.6,263.1,409.1,230.7L409.1,230.7z"/>
				</g>
				<g>
					<defs>
						<path id="SVGID_00000116197877236371175630000016274669552546623118_" d="M409.1,230.7c-0.9-4.5-3.2-16.2-4.4-22L367.4,23.3
							l-8-7l-22.9,0.6l-61.1,38.3c-2.9,4.2-5.3,8.9-7,14.5c0,0,23.7-11.5,30.2,20.9c0.9,4.5,3.2,16.2,4.4,22l2.5,12.2h0l6.7,33.7
							l12.5,61.3c6.8,34.1,16.4,76.1,64.4,69.4c21-3,43-12.6,50.4-37.8C439.3,251.5,415.6,263.1,409.1,230.7L409.1,230.7z"/>
					</defs>
					<clipPath id="SVGID_00000060027520440583784220000006757709190823712655_">
						<use xlink:href="#SVGID_00000116197877236371175630000016274669552546623118_"  style="overflow:visible;"/>
					</clipPath>
					
						<g id="XMLID_00000112634747264926044760000016968510055372589736_" style="clip-path:url(#SVGID_00000060027520440583784220000006757709190823712655_);">
						<g>
							
								<linearGradient id="XMLID_00000087378571646385195960000014146771763195476360_" gradientUnits="userSpaceOnUse" x1="241.17" y1="250.7847" x2="466.52" y2="25.4347" gradientTransform="matrix(1 0 0 -1 0 294.2293)">
								<stop  offset="0.1129" style="stop-color:#F39200"/>
								<stop  offset="0.6237" style="stop-color:#FFDE00"/>
							</linearGradient>
							
								<rect id="XMLID_00000111168431224553178660000003769001710007642527_" x="268.4" y="16.2" style="fill:url(#XMLID_00000087378571646385195960000014146771763195476360_);" width="170.9" height="279.8"/>
						</g>
					</g>
				</g>
			</g>
		</g>
	</g>
	<g id="XMLID_00000150820566303046202630000007619912040454896285_">
		<g>
			<path id="XMLID_00000002350204492695111530000008930231331667388848_" class="st5" d="M97.7,211.4l7.9,3.4
				c16.6,3.2,30.5,5.4,33.7-11.2L170.7,40c3.2-16.6-7.8-32.8-24.4-36l-11.7-0.1c-0.3,7.4-28.5,8.1-39.6,21.6L65.6,178.2
				C62.4,194.8,81.1,208.2,97.7,211.4z"/>
		</g>
		<g>
			<defs>
				<path id="SVGID_00000045596422050443412260000015380702635541953450_" d="M97.7,211.4l7.9,3.4c16.6,3.2,30.5,5.4,33.7-11.2
					L170.7,40c3.2-16.6-7.8-32.8-24.4-36l-11.7-0.1c-0.3,7.4-28.5,8.1-39.6,21.6L65.6,178.2C62.4,194.8,81.1,208.2,97.7,211.4z"/>
			</defs>
			<clipPath id="SVGID_00000056399863217239246990000004613231722866854056_">
				<use xlink:href="#SVGID_00000045596422050443412260000015380702635541953450_"  style="overflow:visible;"/>
			</clipPath>
			
				<g id="XMLID_00000111189464165000371670000009971360026257061028_" style="clip-path:url(#SVGID_00000056399863217239246990000004613231722866854056_);">
				<g>
					<path id="XMLID_00000005260933181443767710000013432210527535417987_" class="st5" d="M52.5,230.7c0.9-4.5,3.2-16.2,4.4-22
						L94.3,23.3l8.1-7l22.9,0.6l61.1,38.3c2.9,4.2,5.3,8.9,6.9,14.5c0,0-23.7-11.5-30.2,20.9c-0.9,4.5-3.2,16.2-4.4,22l-2.4,12.2h0
						l-6.7,33.7L137,219.9c-6.8,34.1-16.4,76.1-64.4,69.4c-21-3-43-12.6-50.4-37.8C22.4,251.5,46.1,263.1,52.5,230.7L52.5,230.7z"/>
				</g>
				<g>
					<defs>
						<path id="SVGID_00000066481859046554753190000003582139139689878193_" d="M52.5,230.7c0.9-4.5,3.2-16.2,4.4-22L94.3,23.3
							l8.1-7l22.9,0.6l61.1,38.3c2.9,4.2,5.3,8.9,6.9,14.5c0,0-23.7-11.5-30.2,20.9c-0.9,4.5-3.2,16.2-4.4,22l-2.4,12.2h0l-6.7,33.7
							L137,219.9c-6.8,34.1-16.4,76.1-64.4,69.4c-21-3-43-12.6-50.4-37.8C22.4,251.5,46.1,263.1,52.5,230.7L52.5,230.7z"/>
					</defs>
					<clipPath id="SVGID_00000132778003768218265310000014934146672306263955_">
						<use xlink:href="#SVGID_00000066481859046554753190000003582139139689878193_"  style="overflow:visible;"/>
					</clipPath>
					
						<g id="XMLID_00000180355495427414368450000002037639227134215869_" style="clip-path:url(#SVGID_00000132778003768218265310000014934146672306263955_);">
						<g>
							
								<rect id="XMLID_00000178188510488578614520000000560977255679535795_" x="22.4" y="16.2" class="st5" width="170.9" height="279.8"/>
						</g>
					</g>
				</g>
			</g>
		</g>
	</g>
	<g id="XMLID_00000107574986342463967270000002244606521303435913_">
		<g>
			<path id="XMLID_00000131361966144453456110000007562282089321199764_" class="st8" d="M316.6,0.4c-48-4.2-57.5,22-64.4,43.1
				l-3.8,11.9l-16.3,49.1l0,0l-20.4,63.1c-1.1,3.6-3.5,10.9-4.4,13.7c-6.5,20.1-29.1,10.8-29.1,10.8c7.4,15.6,28.1,26.4,49.2,25.7
				c53.6-1.8,59.8-21.3,64.4-43.1l19.4-60.1l21.1-64c1.1-3.6,3.5-10.9,4.4-13.7c6.5-20.1,30.2-13,30.2-13
				C359.6,8.3,337.7,2.3,316.6,0.4L316.6,0.4z"/>
		</g>
		<g>
			<defs>
				<path id="SVGID_00000032643920372147391080000009882350498679864466_" d="M316.6,0.4c-48-4.2-57.5,22-64.4,43.1l-3.8,11.9
					l-16.3,49.1l0,0l-20.4,63.1c-1.1,3.6-3.5,10.9-4.4,13.7c-6.5,20.1-29.1,10.8-29.1,10.8c7.4,15.6,28.1,26.4,49.2,25.7
					c53.6-1.8,59.8-21.3,64.4-43.1l19.4-60.1l21.1-64c1.1-3.6,3.5-10.9,4.4-13.7c6.5-20.1,30.2-13,30.2-13
					C359.6,8.3,337.7,2.3,316.6,0.4L316.6,0.4z"/>
			</defs>
			<clipPath id="SVGID_00000147937693645287051270000000294374945276073901_">
				<use xlink:href="#SVGID_00000032643920372147391080000009882350498679864466_"  style="overflow:visible;"/>
			</clipPath>
			
				<g id="XMLID_00000114059309742865268140000004670625154822002576_" style="clip-path:url(#SVGID_00000147937693645287051270000000294374945276073901_);">
				<g>
					
						<rect id="XMLID_00000144319677761310440070000014459940962022027691_" x="177.1" y="-3.7" class="st8" width="189.9" height="225.7"/>
				</g>
			</g>
		</g>
	</g>
	<g id="XMLID_00000095332265170612445990000015869091572896300447_">
		<g>
			<path id="XMLID_00000034067691805360042970000014968755000523494785_" class="st8" d="M145.8,0.4c48-4.2,57.6,22,64.4,43.1
				l3.8,11.9l16.3,49.1l0,0l20.4,63.1c1.1,3.6,3.5,10.9,4.4,13.7c6.5,20.1,30.4,13,30.4,13c-7.4,15.6-29.5,21.6-50.5,23.4
				c-48,4.2-57.6-21.9-64.4-43.1l-19.4-60.1l-21.1-64c-1.1-3.6-3.5-10.9-4.4-13.7c-6.5-20.1-30.2-13-30.2-13
				C102.9,8.3,124.8,2.3,145.8,0.4L145.8,0.4z"/>
		</g>
		<g>
			<defs>
				<path id="SVGID_00000108287297731359947470000017737777623280037275_" d="M145.8,0.4c48-4.2,57.6,22,64.4,43.1l3.8,11.9
					l16.3,49.1l0,0l20.4,63.1c1.1,3.6,3.5,10.9,4.4,13.7c6.5,20.1,30.4,13,30.4,13c-7.4,15.6-29.5,21.6-50.5,23.4
					c-48,4.2-57.6-21.9-64.4-43.1l-19.4-60.1l-21.1-64c-1.1-3.6-3.5-10.9-4.4-13.7c-6.5-20.1-30.2-13-30.2-13
					C102.9,8.3,124.8,2.3,145.8,0.4L145.8,0.4z"/>
			</defs>
			<clipPath id="SVGID_00000044873865776957598300000013907434504470370715_">
				<use xlink:href="#SVGID_00000108287297731359947470000017737777623280037275_"  style="overflow:visible;"/>
			</clipPath>
			
				<g id="XMLID_00000049214666288377686750000010110365658701482384_" style="clip-path:url(#SVGID_00000044873865776957598300000013907434504470370715_);">
				<g>
					
						<rect id="XMLID_00000095302047958939365900000013914874922561362871_" x="95.5" y="-3.7" class="st8" width="189.9" height="225.7"/>
				</g>
			</g>
		</g>
	</g>
	<g id="XMLID_00000175288590943391550290000001074287418970094762_">
		<g>
			<path id="XMLID_00000001664838747346627290000011294696052382596526_" class="st8" d="M24.4,84.9c27.5-12.4,39.5,4.7,48.6,18.7
				l5.1,7.9L99.5,144l0,0l27.2,41.8c1.6,2.4,4.7,7.2,5.9,9.1c8.7,13.4,9.3-5,9.3-5c-0.7,12.8-6.9,41.7-27.7,41.8
				c-32,0.2-49-4.5-57.6-82.4C50.8,96.5,0,111.8,0,111.8C0.7,99,12.3,90.4,24.4,84.9L24.4,84.9z"/>
		</g>
		<g>
			<defs>
				<path id="SVGID_00000089535230768123831950000005917507274159691455_" d="M24.4,84.9c27.5-12.4,39.5,4.7,48.6,18.7l5.1,7.9
					L99.5,144l0,0l27.2,41.8c1.6,2.4,4.7,7.2,5.9,9.1c8.7,13.4,9.3-5,9.3-5c-0.7,12.8-6.9,41.7-27.7,41.8c-32,0.2-49-4.5-57.6-82.4
					C50.8,96.5,0,111.8,0,111.8C0.7,99,12.3,90.4,24.4,84.9L24.4,84.9z"/>
			</defs>
			<clipPath id="SVGID_00000128465811472981101580000013407468873748313483_">
				<use xlink:href="#SVGID_00000089535230768123831950000005917507274159691455_"  style="overflow:visible;"/>
			</clipPath>
			
				<g id="XMLID_00000106836556123059535770000016976591543857937574_" style="clip-path:url(#SVGID_00000128465811472981101580000013407468873748313483_);">
				<g>
					
						<rect id="XMLID_00000098190792125725997520000018263195531113284228_" x="17.4" y="68.8" transform="matrix(0.9498 -0.313 0.313 0.9498 -44.676 31.8605)" class="st8" width="119" height="172.6"/>
				</g>
			</g>
		</g>
	</g>
</g>
</svg>
