<?xml version="1.0" encoding="utf-8"?>
<!-- Generator: Adobe Illustrator 27.2.0, SVG Export Plug-In . SVG Version: 6.00 Build 0)  -->
<svg version="1.1" id="Capa_1" xmlns="http://www.w3.org/2000/svg" xmlns:xlink="http://www.w3.org/1999/xlink" x="0px" y="0px"
	 viewBox="0 0 1223.31 299.74" style="enable-background:new 0 0 1223.31 299.74;" xml:space="preserve">
<style type="text/css">
	.st0{fill:url(#XMLID_00000115509815244280724000000015485333967618821009_);}
	.st1{fill:url(#XMLID_00000173131009156881029660000003375708613455318404_);}
	.st2{font-family:'MADEWaffleSoft';}
	.st3{font-size:197.4039px;}
	.st4{clip-path:url(#XMLID_00000155833928475775410420000013242520549529570433_);}
	.st5{clip-path:url(#XMLID_00000171713086901261180180000015454333512953067955_);}
	.st6{clip-path:url(#XMLID_00000169525362642778162750000002685408357987379093_);}
	.st7{clip-path:url(#XMLID_00000140694313657724183110000015852998917336209559_);}
	.st8{clip-path:url(#XMLID_00000073692460751993571640000004513050603750708655_);}
	.st9{clip-path:url(#XMLID_00000069359188511435932520000006267869825216977819_);}
	.st10{clip-path:url(#XMLID_00000132068862621178679810000018177268792377610408_);}
</style>
<linearGradient id="XMLID_00000001638414325654160430000003613943130781352382_" gradientUnits="userSpaceOnUse" x1="714.1706" y1="154.8613" x2="847.9295" y2="154.8613">
	<stop  offset="0.3387" style="stop-color:#FFDE00"/>
	<stop  offset="1" style="stop-color:#F39200"/>
</linearGradient>
<circle id="XMLID_00000057120759081805224130000013386166884777203597_" style="fill:url(#XMLID_00000001638414325654160430000003613943130781352382_);" cx="781.05" cy="154.86" r="66.88"/>
<linearGradient id="XMLID_00000004515763096189141900000017561740704555040401_" gradientUnits="userSpaceOnUse" x1="547.8251" y1="155.0898" x2="681.584" y2="155.0898">
	<stop  offset="0.3387" style="stop-color:#FFDE00"/>
	<stop  offset="1" style="stop-color:#F39200"/>
</linearGradient>
<circle id="XMLID_00000172430836798128162050000003796228192004359815_" style="fill:url(#XMLID_00000004515763096189141900000017561740704555040401_);" cx="614.7" cy="155.09" r="66.88"/>
<text id="XMLID_00000107567860705295453190000011249537804050378680_" transform="matrix(1 0 0 1 397.2446 225.5803)" class="st2 st3">TOOLS</text>
<g id="XMLID_00000130641073311499114230000017436471478782199200_">
	<path d="M1128.66,85.22l29.01,70.6l-29.01,66.68c0,0,92.37-34.16,91.33-67.71C1218.99,122.49,1128.66,85.22,1128.66,85.22z"/>
	<path d="M1128.66,85.22l29.01,70.6l-29.01,66.68c0,0,92.37-34.16,91.33-67.71C1218.99,122.49,1128.66,85.22,1128.66,85.22z"/>
	<path d="M1128.66,85.22l29.01,70.6l-29.01,66.68c0,0,92.37-34.16,91.33-67.71C1218.99,122.49,1128.66,85.22,1128.66,85.22z"/>
	<path d="M1128.66,85.22l29.01,70.6l-29.01,66.68c0,0,92.37-34.16,91.33-67.71C1218.99,122.49,1128.66,85.22,1128.66,85.22z"/>
</g>
<g id="XMLID_00000057127610051222026530000001496112300546106796_">
	<defs>
		<path id="XMLID_00000047017637072940264000000015744005126259381673_" d="M376.43,237.71l-10.81,2.08
			c-17.86,3.44-35.29-8.36-38.73-26.23L294.68,46.18c-3.44-17.86,8.36-35.29,26.23-38.73l-6.51,0.32
			c17.86-3.44,52.62,5.97,56.05,23.83l32.22,167.39C406.1,216.84,394.3,234.27,376.43,237.71z"/>
	</defs>
	
		<linearGradient id="XMLID_00000158731780076504277330000008636800331929950104_" gradientUnits="userSpaceOnUse" x1="272.2786" y1="48.0723" x2="423.1727" y2="198.9665">
		<stop  offset="0.1129" style="stop-color:#F39200"/>
		<stop  offset="0.6237" style="stop-color:#FFDE00"/>
	</linearGradient>
	
		<use xlink:href="#XMLID_00000047017637072940264000000015744005126259381673_"  style="overflow:visible;fill:url(#XMLID_00000158731780076504277330000008636800331929950104_);"/>
	<clipPath id="XMLID_00000146491289025778051280000000546261780101315773_">
		<use xlink:href="#XMLID_00000047017637072940264000000015744005126259381673_"  style="overflow:visible;"/>
	</clipPath>
	
		<g id="XMLID_00000070838495854434410160000010162258218797384325_" style="clip-path:url(#XMLID_00000146491289025778051280000000546261780101315773_);">
		<defs>
			<path id="XMLID_00000087380787727647684040000013532434152531554205_" d="M412.43,234.54c-0.89-4.47-3.25-16.25-4.4-22.02
				L370.7,27.16l-8.05-7.04l-22.93,0.61l-61.08,38.28c-2.91,4.15-5.31,8.94-6.95,14.53c0,0,23.71-11.55,30.18,20.88
				c0.89,4.47,3.24,16.25,4.4,22.02l2.45,12.25l-0.01,0l6.74,33.74l12.47,61.31c6.81,34.09,16.38,76.14,64.36,69.41
				c21.03-2.95,42.96-12.63,50.35-37.75C442.61,255.41,418.9,266.96,412.43,234.54L412.43,234.54z"/>
		</defs>
		
			<linearGradient id="XMLID_00000155869241171182505180000017535292577156660099_" gradientUnits="userSpaceOnUse" x1="272.0567" y1="65.588" x2="456.5636" y2="250.095">
			<stop  offset="0.1129" style="stop-color:#F39200"/>
			<stop  offset="0.6237" style="stop-color:#FFDE00"/>
		</linearGradient>
		
			<use xlink:href="#XMLID_00000087380787727647684040000013532434152531554205_"  style="overflow:visible;fill:url(#XMLID_00000155869241171182505180000017535292577156660099_);"/>
		<clipPath id="XMLID_00000017507961810920774340000005285618585040514736_">
			<use xlink:href="#XMLID_00000087380787727647684040000013532434152531554205_"  style="overflow:visible;"/>
		</clipPath>
		
			<g id="XMLID_00000112634747264926044760000016968510055372589736_" style="clip-path:url(#XMLID_00000017507961810920774340000005285618585040514736_);">
			<defs>
				<rect id="XMLID_00000111168431224553178660000003769001710007642527_" x="271.68" y="20.12" width="170.93" height="279.77"/>
			</defs>
			
				<linearGradient id="XMLID_00000035494069949462483120000003978354393966505103_" gradientUnits="userSpaceOnUse" x1="244.4737" y1="47.3313" x2="469.8225" y2="272.6801">
				<stop  offset="0.1129" style="stop-color:#F39200"/>
				<stop  offset="0.6237" style="stop-color:#FFDE00"/>
			</linearGradient>
			
				<use xlink:href="#XMLID_00000111168431224553178660000003769001710007642527_"  style="overflow:visible;fill:url(#XMLID_00000035494069949462483120000003978354393966505103_);"/>
			<clipPath id="XMLID_00000153674003906612580480000011691627600937108619_">
				<use xlink:href="#XMLID_00000111168431224553178660000003769001710007642527_"  style="overflow:visible;"/>
			</clipPath>
		</g>
	</g>
</g>
<g id="XMLID_00000150820566303046202630000007619912040454896285_">
	<defs>
		<path id="XMLID_00000002350204492695111530000008930231331667388848_" d="M100.97,215.26l7.9,3.39
			c16.62,3.2,30.49,5.38,33.69-11.24l31.47-163.49c3.2-16.62-7.78-32.83-24.4-36.03L137.9,7.77c-0.29,7.44-28.5,8.12-39.64,21.57
			L68.86,182.04C65.67,198.66,84.35,212.06,100.97,215.26z"/>
	</defs>
	<use xlink:href="#XMLID_00000002350204492695111530000008930231331667388848_"  style="overflow:visible;fill:#FABC00;"/>
	<clipPath id="XMLID_00000010307872849345994230000009745929201298019732_">
		<use xlink:href="#XMLID_00000002350204492695111530000008930231331667388848_"  style="overflow:visible;"/>
	</clipPath>
	
		<g id="XMLID_00000111189464165000371670000009971360026257061028_" style="clip-path:url(#XMLID_00000010307872849345994230000009745929201298019732_);">
		<defs>
			<path id="XMLID_00000005260933181443767710000013432210527535417987_" d="M55.84,234.54c0.89-4.47,3.25-16.25,4.4-22.02
				L97.56,27.16l8.05-7.04l22.93,0.61l61.08,38.28c2.91,4.15,5.31,8.94,6.95,14.53c0,0-23.71-11.55-30.18,20.88
				c-0.89,4.47-3.24,16.25-4.4,22.02l-2.45,12.25l0.01,0l-6.74,33.74l-12.47,61.31c-6.81,34.09-16.38,76.14-64.36,69.41
				c-21.03-2.95-42.96-12.63-50.35-37.75C25.65,255.41,49.36,266.96,55.84,234.54L55.84,234.54z"/>
		</defs>
		<use xlink:href="#XMLID_00000005260933181443767710000013432210527535417987_"  style="overflow:visible;fill:#FABC00;"/>
		<clipPath id="XMLID_00000044888156431936283250000012757087823866479802_">
			<use xlink:href="#XMLID_00000005260933181443767710000013432210527535417987_"  style="overflow:visible;"/>
		</clipPath>
		
			<g id="XMLID_00000180355495427414368450000002037639227134215869_" style="clip-path:url(#XMLID_00000044888156431936283250000012757087823866479802_);">
			<defs>
				<rect id="XMLID_00000178188510488578614520000000560977255679535795_" x="25.65" y="20.12" width="170.93" height="279.77"/>
			</defs>
			<use xlink:href="#XMLID_00000178188510488578614520000000560977255679535795_"  style="overflow:visible;fill:#FABC00;"/>
			<clipPath id="XMLID_00000127764576266199358100000014398101450977527995_">
				<use xlink:href="#XMLID_00000178188510488578614520000000560977255679535795_"  style="overflow:visible;"/>
			</clipPath>
		</g>
	</g>
</g>
<g id="XMLID_00000107574986342463967270000002244606521303435913_">
	<defs>
		<path id="XMLID_00000131361966144453456110000007562282089321199764_" d="M319.92,4.33c-47.97-4.18-57.55,21.95-64.36,43.14
			l-3.81,11.87l-16.26,49.09h0l-20.36,63.12c-1.15,3.59-3.51,10.91-4.4,13.69c-6.48,20.15-29.05,10.77-29.05,10.77
			c7.39,15.61,28.11,26.38,49.21,25.67c53.59-1.8,59.78-21.3,64.36-43.14l19.39-60.11l21.06-63.97c1.15-3.59,3.51-10.91,4.4-13.69
			c6.48-20.15,30.18-12.97,30.18-12.97C362.87,12.18,340.95,6.16,319.92,4.33L319.92,4.33z"/>
	</defs>
	<use xlink:href="#XMLID_00000131361966144453456110000007562282089321199764_"  style="overflow:visible;fill:#FFDE00;"/>
	<clipPath id="XMLID_00000013158013655542403930000002288248752772864955_">
		<use xlink:href="#XMLID_00000131361966144453456110000007562282089321199764_"  style="overflow:visible;"/>
	</clipPath>
	
		<g id="XMLID_00000114059309742865268140000004670625154822002576_" style="clip-path:url(#XMLID_00000013158013655542403930000002288248752772864955_);">
		<defs>
			<rect id="XMLID_00000144319677761310440070000014459940962022027691_" x="180.35" y="0.15" width="189.91" height="225.71"/>
		</defs>
		<use xlink:href="#XMLID_00000144319677761310440070000014459940962022027691_"  style="overflow:visible;fill:#FFDE00;"/>
		<clipPath id="XMLID_00000083076854826293417200000004020309751025676677_">
			<use xlink:href="#XMLID_00000144319677761310440070000014459940962022027691_"  style="overflow:visible;"/>
		</clipPath>
	</g>
</g>
<g id="XMLID_00000095332265170612445990000015869091572896300447_">
	<defs>
		<path id="XMLID_00000034067691805360042970000014968755000523494785_" d="M149.14,4.33c47.97-4.18,57.55,21.95,64.36,43.14
			l3.81,11.87l16.26,49.09h0l20.36,63.12c1.15,3.59,3.51,10.91,4.4,13.69c6.48,20.15,30.37,13,30.37,13
			c-7.39,15.61-29.5,21.6-50.53,23.43c-47.97,4.18-57.55-21.95-64.36-43.14l-19.38-60.11l-21.06-63.97
			c-1.15-3.59-3.51-10.91-4.4-13.69c-6.48-20.15-30.18-12.97-30.18-12.97C106.18,12.18,128.11,6.16,149.14,4.33L149.14,4.33z"/>
	</defs>
	<use xlink:href="#XMLID_00000034067691805360042970000014968755000523494785_"  style="overflow:visible;fill:#FFDE00;"/>
	<clipPath id="XMLID_00000005240558123382537300000010794797704691245212_">
		<use xlink:href="#XMLID_00000034067691805360042970000014968755000523494785_"  style="overflow:visible;"/>
	</clipPath>
	
		<g id="XMLID_00000049214666288377686750000010110365658701482384_" style="clip-path:url(#XMLID_00000005240558123382537300000010794797704691245212_);">
		<defs>
			<rect id="XMLID_00000095302047958939365900000013914874922561362871_" x="98.79" y="0.15" width="189.91" height="225.71"/>
		</defs>
		<use xlink:href="#XMLID_00000095302047958939365900000013914874922561362871_"  style="overflow:visible;fill:#FFDE00;"/>
		<clipPath id="XMLID_00000040564641802313178870000012110697204985326234_">
			<use xlink:href="#XMLID_00000095302047958939365900000013914874922561362871_"  style="overflow:visible;"/>
		</clipPath>
	</g>
</g>
<g id="XMLID_00000175288590943391550290000001074287418970094762_">
	<defs>
		<path id="XMLID_00000001664838747346627290000011294696052382596526_" d="M27.65,88.8c27.54-12.44,39.49,4.66,48.61,18.71
			l5.11,7.87l21.42,32.46l0,0l27.22,41.84c1.55,2.38,4.7,7.23,5.89,9.08c8.67,13.36,9.28-5.01,9.28-5.01
			c-0.66,12.79-6.91,41.66-27.65,41.78c-32.05,0.19-49.04-4.48-57.61-82.44c-5.8-52.75-56.62-37.38-56.62-37.38
			C3.97,102.93,15.57,94.26,27.65,88.8L27.65,88.8z"/>
	</defs>
	<use xlink:href="#XMLID_00000001664838747346627290000011294696052382596526_"  style="overflow:visible;fill:#FFDE00;"/>
	<clipPath id="XMLID_00000087412139720449990770000005522642286554451621_">
		<use xlink:href="#XMLID_00000001664838747346627290000011294696052382596526_"  style="overflow:visible;"/>
	</clipPath>
	
		<g id="XMLID_00000106836556123059535770000016976591543857937574_" style="clip-path:url(#XMLID_00000087412139720449990770000005522642286554451621_);">
		<defs>
			
				<rect id="XMLID_00000098190792125725997520000018263195531113284228_" x="20.71" y="72.69" transform="matrix(0.9498 -0.313 0.313 0.9498 -45.7219 33.0807)" width="118.96" height="172.56"/>
		</defs>
		<use xlink:href="#XMLID_00000098190792125725997520000018263195531113284228_"  style="overflow:visible;fill:#FFDE00;"/>
		<clipPath id="XMLID_00000142898933073673910380000016290609465853497523_">
			<use xlink:href="#XMLID_00000098190792125725997520000018263195531113284228_"  style="overflow:visible;"/>
		</clipPath>
	</g>
</g>
</svg>
